<svg width="775" height="540" viewBox="0 0 775 540" fill="none" xmlns="http://www.w3.org/2000/svg">
<mask id="mask0_28_156" style="mask-type:luminance" maskUnits="userSpaceOnUse" x="0" y="0" width="907" height="540">
<path d="M0 0H907V540H0V0Z" fill="white"/>
</mask>
<g mask="url(#mask0_28_156)">
<path fill-rule="evenodd" clip-rule="evenodd" d="M637.359 2.29692C635.495 4.33858 630.427 13.9792 625.177 25.474C609.125 60.6407 596.87 79.6355 570.906 109.594C551.177 132.365 538.104 149.443 539.401 150.74C540.938 152.281 573.797 119.698 589.021 101.537C612.771 73.1928 643.292 13.4792 640.24 1.32296C639.911 4.20264e-05 639.255 0.218791 637.359 2.29692ZM733.776 45.7709C732.432 47.1459 729.729 50.1407 727.771 52.4219C701.521 83.0261 676.12 106.188 607.042 162.479C550.365 208.667 535.859 222.578 522.25 243.807C516 253.547 513.995 256.349 511.036 259.443C500.188 270.792 485.766 273.755 452.458 271.479C440.839 270.688 427.688 270.849 417.901 271.906C409.75 272.781 407.193 272.979 407.193 272.734C407.193 272.625 408.813 270.964 410.792 269.042C413.208 266.698 414.469 265.208 414.625 264.521C414.75 263.958 414.906 263.307 414.974 263.083C415.344 261.875 424.396 258.51 433.448 256.214C443.411 253.688 446.797 252.13 450.464 248.38C454.531 244.224 452.651 242.042 447.094 244.474C444.5 245.609 439.036 247.271 432.141 249.021C418.052 252.594 412.448 255.156 405.984 260.964C404.844 261.99 402.88 263.641 401.615 264.63C398.776 266.859 395.521 270.339 395.245 271.432C394.766 273.354 396.563 275.75 398.5 275.776C399.438 275.787 400.109 276.094 401.094 276.964L402.422 278.135L401.266 278.333C400.63 278.438 396.536 279.063 392.167 279.719C387.797 280.38 380.875 281.458 376.792 282.12C372.708 282.781 367.5 283.568 365.219 283.865C362.938 284.162 360.531 284.49 359.865 284.594C359.089 284.708 360.13 284.094 362.792 282.859C375.526 276.943 395.12 262.13 388.438 263.464C387.859 263.578 383.969 265.563 379.792 267.865C353.469 282.401 330.854 288.662 323.078 283.573L322.172 282.974L322.969 282.349C323.406 282.005 324.755 281.224 325.969 280.615C330.396 278.385 332.75 275.453 332.5 272.458L332.349 270.656L336.865 269.25C339.354 268.474 345.036 266.828 349.505 265.594C368.5 260.344 380.651 255.042 390.953 247.5C396.188 243.672 402.839 236.401 401.938 235.5C401.271 234.828 398.24 236.469 386.714 243.74C373.849 251.849 365.573 255.255 345.458 260.719C329.042 265.182 322.76 268.026 319.068 272.667C316.516 275.875 313.708 278.359 313.12 277.927C312.891 277.766 311.958 277.031 311.036 276.302L309.365 274.969L311.729 274.219C317.432 272.412 320.635 269.958 320.422 267.568L320.313 266.323L323.073 265.182C324.594 264.557 330.422 262.229 336.026 260.021C347.688 255.427 352.75 253.063 364.469 246.771C372.719 242.339 375.75 240.927 383.182 238.083C393.896 233.974 396.589 231.646 390.505 231.76C382.281 231.906 371.979 235.323 356.677 242.984C349.979 246.339 342.443 249.76 332.057 254.167C318.958 259.724 315.063 261.693 307.01 266.787C306.724 266.969 305.266 267.682 303.771 268.375C298.891 270.635 297.813 272.245 299.495 274.734C300.411 276.083 301.703 276.516 303.703 276.146C305.021 275.901 305.26 275.974 306.427 276.979C307.635 278.026 310.984 279.563 312.052 279.563C312.365 279.563 312.536 279.938 312.536 280.609C312.536 281.188 312.865 282.297 313.26 283.078L313.979 284.495L311.443 284.245C304.672 283.594 292.021 280.818 286.859 278.854C283.682 277.651 283.635 278.703 286.714 281.776C297.172 292.198 331.349 297.703 361.766 293.865C364.047 293.578 373.682 292.042 383.182 290.448C413.161 285.432 423.552 284.333 450.547 283.333C467.281 282.719 509.089 282.656 525.167 283.224C547.901 284.037 561.271 283.609 561.865 282.063C562.833 279.547 552.76 277.766 530.177 276.464C523.432 276.078 515.224 275.604 511.943 275.417C508.656 275.224 505.625 275.068 505.203 275.063C504.724 275.057 505.526 274.474 507.359 273.49C515.708 269.01 519.703 264.599 529.328 249.234C541.828 229.276 556.823 214.5 607.026 172.635C652.458 134.755 668.177 120.974 691 99.0209C715.156 75.7761 739.474 46.6407 737.104 43.7813C736.474 43.0261 736.438 43.0469 733.776 45.7709ZM144.125 145.734C107.87 149.521 77.1146 178.292 76 209.479L75.8073 214.875L74.3854 215.297C70.7552 216.359 61.125 222.146 54.4063 227.297C10.6042 260.875 -10.8333 337.573 7.16668 396.323C16.6927 427.412 39.0104 448.484 66.4636 452.318L69.6406 452.76L70.2136 455.115C72.8229 465.771 81.6563 472.156 96.4531 474.083C99.4688 474.474 109.578 474.365 119.922 473.828C125.198 473.557 130.297 474.198 129.25 475C128.5 475.573 121.365 479.01 118.302 480.271C117.208 480.719 116.318 481.24 116.318 481.422C116.318 481.734 120.229 481.552 122.964 481.109L124.089 480.932L123.229 481.547C120.026 483.87 119.62 485.349 122.422 484.49C124.177 483.953 124.198 484.141 122.531 485.458C119.146 488.135 123.693 486.917 129.563 483.573L132.266 482.031L131.432 483.141C129.354 485.906 129.031 486.448 129.25 486.802C129.75 487.609 133.104 484.818 135.651 481.479C136.458 480.422 136.474 480.672 135.755 482.599C135.026 484.526 137.677 483.01 138.594 480.969L139.203 479.62L141.208 481.24C144.042 483.526 146.646 485.037 149.323 485.943L151.641 486.719L149.609 487.443C145.563 488.891 135.063 491.776 128.667 493.203C127.438 493.474 127.464 494.162 128.734 495.229C137.979 503.005 198.031 483.354 230.068 462.073C255.313 445.297 272.76 426.203 297.458 388.302C310.219 368.729 316.214 362.76 331.365 354.568C341.469 349.104 348.646 346.927 363.49 344.828C369.135 344.031 370.682 343.448 370.849 342.042C371.411 337.333 353.833 337.552 340.745 342.417C318.396 350.729 307.339 359.365 287.854 383.729C267.604 409.052 257.385 420.245 243.078 432.802C221.719 451.547 193.948 469.38 170.771 479.24L167.359 480.693L161.271 480.526C152.151 480.281 149.604 479.365 142.615 473.839C142.547 473.787 143.448 472.781 144.62 471.609C147.87 468.354 149.313 464.766 148.438 462.109C147.703 459.885 147.036 460.328 140.563 467.339C137.781 470.354 137.594 470.417 134.755 469.224C129.854 467.167 125.375 466.807 115.042 467.641C103.88 468.542 102.708 468.583 98.3542 468.198C86.3698 467.146 77.8958 462.339 73.7656 454.25L73.0833 452.906L75.4427 453.141C95.1771 455.12 127.974 443.224 149.385 426.313C159.875 418.021 171.224 404.333 169.677 401.828C169.255 401.151 163.063 404.984 160.51 407.5C159.859 408.146 156.604 410.688 153.281 413.146C113.734 442.443 79.5156 450.703 51.6615 437.688C47.7083 435.839 47.2552 435.359 49.4636 435.359C56.8594 435.359 65.9323 430.573 75.7969 421.464C77.7083 419.703 80.8333 417.281 82.7448 416.089C103.849 402.891 115.172 389.365 131.328 358.031C147.474 326.719 157.49 314.24 182.885 293.797C190.245 287.875 191.281 286.859 191.281 285.589C191.281 282.094 178.849 288.078 169 296.307C151.344 311.063 139.125 327.385 126.458 353.141C116.568 373.255 114.995 376.156 110.219 383.104C103.531 392.828 96.5417 400.797 88.1875 408.198L85.8021 410.318L88.0938 407C94.7031 397.448 99.8854 387.234 111.307 361.26C113.141 357.078 116.281 350.016 118.286 345.557C122.599 335.953 122.99 334.938 122.464 334.615C121.349 333.927 114.755 345.438 101.38 371.422C83.7708 405.635 74.1094 417.328 55.8958 426.464C51.4531 428.693 50.8698 427.917 55.1511 425.469C64.0417 420.385 74.6302 409.583 82.5886 397.474C90.8281 384.943 94.3021 377.787 108.401 344.333C117.865 321.87 122.786 314.599 142.323 294.24C149.563 286.693 151.042 284.495 149.505 283.547C147.563 282.344 135.339 290.547 127.688 298.188C115.214 310.641 109.193 321.083 97.4531 350.63C83.0417 386.891 76.6563 398.74 63.0261 414.531C59.8229 418.245 59.1302 418.859 60.2969 416.964C61.3854 415.208 64.9427 407.922 66.6719 403.927C69.4583 397.469 70.2708 395.349 78.599 372.833C85.3594 354.557 91.3386 340.5 98.5573 325.927C104.76 313.401 105.172 311.37 100.083 318.422C91.25 330.656 81.0521 351.37 71.3646 376.75C57.6667 412.63 52.1719 422.219 41.7604 428.396L39.2396 429.891L37.9688 428.917C36.3386 427.677 31.1979 422.537 29.5625 420.505C23.4271 412.906 14.7396 389.234 12.5104 374.042C6.11459 330.526 14 300.474 43.0052 257.797C53.8125 241.891 61.1198 234.198 72.9011 226.339L77.4011 223.333L78.1458 225.453C81.4167 234.724 88.2761 242.365 94.5886 243.766C95.3594 243.938 95.5729 244.297 96.1146 246.302C100.974 264.391 113.828 274 138.516 278.005C153.807 280.484 178.922 273.276 196.052 261.495C200.271 258.589 200.115 256.271 195.839 258.453C195.13 258.813 193 259.729 191.104 260.484C189.208 261.24 185.557 262.714 182.99 263.75C176.552 266.354 175.656 266.62 169.146 267.787C148.125 271.552 129.422 268.927 118.411 260.656C106.885 252.005 101.021 239.458 101.005 223.422C101 216.927 101.328 215.557 105.135 206.25C110.094 194.12 110.411 191.734 106.62 195.162C99.1354 201.922 94.3958 215.578 94.3854 230.417C94.3802 239.62 94.6511 239.323 91.2865 233.787C83.1406 220.401 83.1198 203.906 91.2188 189.568C108.401 159.151 158.901 146.146 184.615 165.521C188.505 168.453 188.672 168.854 185.365 167.328C164.849 157.859 143.427 162.417 123.552 180.479C116.234 187.13 116.609 188.464 124.573 184.073C134.734 178.469 148.344 173.922 156.734 173.328C158.354 173.214 160.219 173.057 160.88 172.99C169.198 172.078 181.932 175.802 190.786 181.734C203.818 190.464 210.323 201.917 213.385 221.521C214.859 230.958 216.292 233.589 217.526 229.12C220.656 217.771 217.224 198.172 210.292 187.839C209.323 186.396 208.292 184.25 207.74 182.526C200.063 158.568 172.714 142.75 144.125 145.734ZM872.063 151.729C870.354 153.021 864.078 160.453 857.76 168.667C845.255 184.927 832.063 198.422 818.286 209.031C814.583 211.885 808.938 216.089 805.083 218.865C798.771 223.417 785.5 233.516 784.776 234.323C784.682 234.432 784.281 234.74 783.88 235.016C781.948 236.339 776.484 241.719 776.484 242.297C776.484 243.224 777.229 243.104 780.042 241.719C782.438 240.542 783.448 239.953 786.849 237.75C787.703 237.198 788.948 236.427 789.615 236.031C790.281 235.641 791.484 234.896 792.286 234.38C793.094 233.865 796.281 231.844 799.37 229.885C802.458 227.932 805.375 226.042 805.854 225.688C806.328 225.339 808.5 223.865 810.688 222.417C815.734 219.078 816.193 218.766 817.286 217.906C817.786 217.521 818.542 216.969 818.964 216.688C832.943 207.307 855.453 183.49 868.099 164.698C874.766 154.787 876.797 148.146 872.063 151.729ZM529.313 156.885C527.599 157.682 525.63 159.224 516.115 167.24C496.875 183.448 488.057 187.917 459.354 195.995C424.771 205.729 409.021 212.792 399.479 222.839C396.844 225.604 404.125 223.526 413.755 218.76C421.396 214.974 435.604 210.109 456.078 204.26C488.297 195.057 498.068 190.802 512.12 179.849C520.448 173.354 531.026 161.313 531.74 157.516C532.026 155.984 531.536 155.859 529.313 156.885ZM151.208 184.109C135.208 185.818 120.818 196.807 117.38 209.927C115.792 216.005 116.177 220.323 118.297 220.078C119.151 219.979 119.286 219.787 119.547 218.24C122.974 198.078 147.036 185.01 167.594 192.146C192.672 200.849 191.047 236.625 165.385 240.896C158.641 242.021 158.328 244.214 164.719 245.573C185.734 250.037 200.589 219.74 187.339 199.443C180.245 188.573 165.995 182.526 151.208 184.109ZM150.516 202.375C145.146 204.094 136.385 211.464 131.495 218.385C112.859 244.76 128.115 270.734 159.125 265.432C182.328 261.469 196.62 249.38 199.542 231.234C200.411 225.813 197.964 225.193 194.87 230.063C188.161 240.62 184.458 245.125 179.401 248.885C159.99 263.318 133.068 252.948 135.667 232.037C136.594 224.557 140.083 218.729 149.625 208.734C154.484 203.641 155.161 202.484 153.542 202.052C152.516 201.776 152.339 201.792 150.516 202.375ZM905.172 219.266C904.411 219.729 903.167 220.448 902.406 220.865C901.271 221.49 896.417 224.375 894.286 225.688C894.005 225.865 893 226.417 892.063 226.917C891.12 227.417 889.797 228.172 889.125 228.594C888.448 229.021 885.484 230.662 882.542 232.245C879.599 233.828 876.646 235.427 875.979 235.802C870.979 238.604 839.354 254.479 811.615 268.12C772.609 287.297 761.5 294.24 746.26 308.958C741.286 313.755 739.646 315.13 736.922 316.776C728.172 322.052 717.406 322.016 699.276 316.656C683.776 312.068 677.193 310.521 669.396 309.615C667.589 309.406 665.646 309.167 665.078 309.089C664.505 309.005 663.302 308.839 662.406 308.714C660.411 308.443 660.49 308.287 663.438 306.677C665.927 305.318 667.667 303.88 667.667 303.188C667.667 302.318 672.255 301.385 677.688 301.146C691.458 300.537 691.724 300.5 695.13 298.823C700.391 296.224 699.328 294.047 693.146 294.74C691.005 294.974 687.005 295.234 684.25 295.313C670.547 295.698 668.125 296.198 660.411 300.245C660.125 300.396 658.729 301.109 657.302 301.833C651.573 304.74 650.135 307.635 653.688 309.125C654.292 309.375 655.042 309.974 655.359 310.453C656.479 312.172 658.932 312.943 668.016 314.458C678 316.12 684.219 317.714 696.339 321.703C700.865 323.193 706.635 324.88 710.333 325.787C713.099 326.469 710.219 326.172 703.958 325.135C696.714 323.938 690.052 322.526 679.76 320.016C664.01 316.177 658.547 315.172 638.13 312.37C623.198 310.323 620.688 309.917 620.688 309.547C620.688 309.391 621.036 309.266 621.464 309.266C627.38 309.255 649.693 301.167 649.703 299.026C649.708 297.995 648.104 298.255 639.859 300.635C637.766 301.234 635.823 301.776 635.542 301.839C635.255 301.901 633.698 302.26 632.083 302.646C629.505 303.255 627.38 303.708 624.542 304.25C614.469 306.172 597.917 304.531 597.891 301.604C597.885 301.396 599.307 300.807 599.526 300.922C599.76 301.052 603.724 299.396 604.682 298.771C605.948 297.943 606.839 296.583 606.943 295.328C607.031 294.266 607.49 294.172 613.948 293.901C626.714 293.365 630.813 293.089 634.156 292.521C634.443 292.469 635.453 292.323 636.406 292.193C646.854 290.74 663.177 283.865 663.177 280.922C663.177 279.906 660.99 280.323 654.656 282.547C641.214 287.271 634.729 288.563 621.896 289.052C604.542 289.724 600.083 290.573 596.146 293.948C595.49 294.516 594.302 295.307 593.51 295.714L592.078 296.443L591.177 295.359C590.094 294.047 590.167 293.662 591.51 293.516C596.016 293.047 598.229 292.073 598.74 290.344C598.943 289.651 599.344 289.146 599.776 289.047C600.516 288.88 611.807 287.245 614.469 286.922C616.958 286.62 626.724 284.521 631.047 283.359C640.354 280.865 643.057 280.24 646.708 279.734C648.833 279.443 651.422 279.052 652.469 278.875C653.51 278.693 654.776 278.479 655.271 278.396C658.766 277.802 658.151 276.151 654.229 275.604C648.156 274.75 641.495 275.479 628.979 278.349C622.323 279.88 619.333 280.479 609.135 282.333C597.938 284.37 596.141 284.776 591.667 286.307C590.432 286.729 588.266 287.333 586.854 287.656C582.578 288.62 581.563 289.604 582.505 291.854C582.948 292.917 584.161 293.51 585.969 293.542C586.156 293.547 586.578 293.974 586.906 294.49C587.229 295.005 588.24 295.922 589.151 296.526C590.693 297.547 590.802 297.714 590.802 299.089C590.802 300.604 591.661 302.016 592.583 302.016C592.839 302.016 593.047 302.141 593.047 302.297C593.047 302.448 590.646 301.76 587.703 300.76C581.865 298.781 581.052 298.802 583.813 300.88C596.667 310.531 604.708 313.094 640.411 318.917C655.854 321.438 660.417 322.385 676.307 326.359C715.234 336.104 746.276 338.552 778.906 334.458C806.979 330.938 842.531 318.912 852.776 309.469C855.641 306.828 855.589 305.469 852.63 305.469C850.042 305.469 850.609 305.292 832.182 311.901C803.307 322.26 788.755 325.745 766.469 327.641C760.214 328.172 733.474 328.266 726.568 327.781L722.078 327.464L726.052 327.005C736.474 325.797 741 323.438 750.578 314.219C759.349 305.776 761.333 304.057 766.297 300.63C766.984 300.156 767.729 299.604 767.958 299.406C772.198 295.677 791.115 285.245 820.677 270.328C842.557 259.292 857.724 251.526 863.198 248.563C864.24 248 866.339 246.87 867.859 246.047C882.375 238.234 898.474 228.844 904.911 224.448L906.724 223.208V220.813C906.724 219.49 906.688 218.417 906.641 218.417C906.589 218.422 905.927 218.802 905.172 219.266ZM223.927 233.969C216.078 234.688 209.672 237.052 210.401 238.958C210.589 239.443 211.104 239.505 213.99 239.385C224.745 238.948 237.24 241.615 246.776 246.385C258.807 252.401 265.016 260.745 267.089 273.688C268.266 281.021 271.078 284.162 274.234 281.677C277.271 279.281 276.75 266.307 273.333 259.349C265.516 243.448 243.568 232.167 223.927 233.969ZM80.3125 242.802C53.0938 247.047 21.2031 288.219 15.5625 326.37C13.3438 341.401 15.1354 356.021 22.5104 383.016C26.8177 398.771 28.2604 405.74 28.4844 411.792C28.6927 417.568 28.8698 418.089 30.625 418.089C32.7031 418.089 33.0365 414.797 32.0677 403.927C30.9531 391.484 30.3021 387.578 26.1719 368.625C19.1042 336.167 22.1198 316.135 38.0886 289.578C51.6875 266.964 67.1406 253.037 84.3646 247.875C89.0104 246.479 90.5781 244.807 88.8594 243.089C87.8646 242.094 85.3698 242.01 80.3125 242.802ZM767.505 245.25C767.219 245.349 762.979 247.438 758.078 249.891C739.453 259.208 733.792 260.578 708.953 261.766C689.531 262.698 684.115 263.391 674.578 266.172C669.438 267.672 662.344 270.995 662.604 271.787C662.745 272.208 665.984 272.302 667.656 271.922C668.328 271.776 669.385 271.563 670.005 271.453C670.625 271.349 672.26 271.016 673.63 270.719C682.219 268.87 693.813 267.745 712.406 266.953C734.052 266.037 746.354 263.021 758.005 255.781C758.958 255.193 760.188 254.453 760.745 254.141C761.302 253.828 762.521 252.969 763.453 252.229C764.385 251.49 765.255 250.885 765.385 250.885C765.964 250.885 770.266 246.307 770.266 245.693C770.266 245.01 768.854 244.781 767.505 245.25ZM206.24 265.63C204.031 268.828 200.646 276.083 195.771 288.052C190.776 300.328 188.099 305.365 182.859 312.37C176.703 320.599 173.531 323.766 150.229 344.974C136.964 357.052 131.443 364.641 119.943 386.651C102.953 419.156 91.6563 428.354 62.4271 433.484C60.6198 433.797 58.3386 434.203 57.3542 434.385C53.0833 435.162 52.1094 437.13 55.3438 438.448C62.3177 441.287 78.0469 439.328 88.5104 434.323C104.573 426.63 113.563 415.896 128 387.167C138.578 366.13 143.01 360.005 158.177 345.49C185.542 319.302 190.438 312.266 200.089 285.26C201.651 280.891 203.99 274.63 205.281 271.344C207.599 265.464 208 263.078 206.24 265.63ZM86.9063 268.662C73.8021 276.328 57.3021 293.755 49.599 308.063C41.8281 322.484 38.8594 332.948 36.4792 354.354C34.9115 368.396 38.3333 405.12 41.1146 404.172C41.4219 404.068 41.4844 402.151 41.3542 396.641C40.7552 371.01 41.5625 355.474 44.1146 343.469C48.9583 320.698 59.7136 301.76 79.3386 281.458C84.125 276.5 87.4479 272.646 88.9844 270.266C91.3177 266.641 90.9011 266.318 86.9063 268.662ZM127.958 278.906C111.625 283.464 91.3333 298.37 78.8021 315.016C66.7188 331.057 61.6094 344.609 57.7813 370.76C53.8646 397.469 49.5 415.302 45.1302 422.448C43 425.927 43.7188 426.01 47.2396 422.688C55.5261 414.87 60.0677 403.943 64.8386 380.318C68.8438 360.5 71.3646 352.583 77.4115 340.88C85.4792 325.255 101.375 305.865 116.5 293.208C117.635 292.255 120.271 289.99 122.365 288.167C124.453 286.344 127.349 284.057 128.807 283.083C132.802 280.406 133.839 278.797 131.823 278.396C130.542 278.135 130.875 278.094 127.958 278.906ZM207.542 286.313C206.661 287.708 205.792 290.948 205.792 292.854C205.792 294.38 203.557 302.349 202.135 305.896C197.568 317.287 190.74 326.74 177.313 340.276C172.74 344.885 168.953 348.927 168.901 349.26C168.828 349.682 168.005 350.099 166.135 350.667C148.797 355.906 139.526 372.083 147.219 383.667C150.766 389.016 160.943 392.875 164.807 390.344C166.62 389.151 166.177 388.724 161.734 387.391C153.844 385.021 149.521 378.724 151.365 372.292C154.922 359.901 173.427 352.839 193.995 356.026C203.781 357.542 205.932 359.01 207.453 365.234C208.01 367.5 209.146 370.766 210.094 372.833C212.609 378.302 212.589 380.375 210 382.339C205.807 385.521 206.198 387.854 210.891 387.599C217.37 387.25 219.609 378.667 215.411 370.307C214.641 368.781 213.589 365.813 213.021 363.583C211.859 359.021 210.995 357.344 208.719 355.245C204.677 351.516 194.521 348.844 183.406 348.573L179.5 348.479L180.984 347.182C193.286 336.443 205.375 329.885 224.667 323.479C247.411 315.932 260.37 307.313 266.896 295.38C269.958 289.787 268.146 290.068 258.818 296.62C248.979 303.531 241.12 307.516 226.344 313.073C214.318 317.599 208.01 320.495 201.354 324.547C199.063 325.948 199.01 325.854 200.792 323.604C203.969 319.604 207.755 313.094 209.526 308.578C212.438 301.156 212.708 290.083 210.078 286.037C209 284.38 208.75 284.406 207.542 286.313ZM454.349 302.734C441.172 303.469 427.901 305.453 416.177 308.448C409.677 310.104 406.849 311.057 406.849 311.583C406.849 312.172 406.797 312.177 411.37 311.151C443.224 304.005 476 303.693 514.797 310.172C532.203 313.078 542.068 315.287 581.823 325.167C633.182 337.927 639.948 339.422 638.109 337.615C636.542 336.073 594.745 323.828 567.391 316.896C522.573 305.547 486.026 300.964 454.349 302.734ZM550.557 334.938C550.557 335.318 551.406 335.662 553.578 336.172C622.563 352.292 740.328 360.438 790.995 352.594C816.76 348.604 821.917 345.75 798.755 348.292C772.641 351.162 754.802 351.859 726.568 351.109C667.953 349.547 620.036 345.172 562.089 336.078C551.12 334.354 550.557 334.302 550.557 334.938ZM175.047 361.125C162.635 362.526 154.953 368.875 157.052 376C157.891 378.87 162.583 382.505 165.432 382.505C166.693 382.505 166.109 381.021 164.318 379.651C158.104 374.922 160.198 369.88 169.573 367.016C179.495 363.979 199.917 364.615 199.917 367.958C199.917 369.375 202.776 370.339 203.693 369.24C208.193 363.818 191.943 359.219 175.047 361.125ZM195.495 373.88C193.474 375.109 192.734 378.25 194.036 380.073C196.385 383.38 203.031 381.495 203.026 377.531C203.021 374.479 198.276 372.182 195.495 373.88ZM429.646 445.76C415.813 447.807 400.427 456.875 370.745 480.464C344.948 500.969 339.505 504.88 328.026 511.135C314.661 518.422 299.208 525.646 279.734 533.714C270.031 537.734 268.38 538.599 268.88 539.417C269.453 540.344 278.948 537.99 291.464 533.813C320.396 524.162 346.49 511.24 372.958 493.464C386.745 484.203 399.349 478.198 409.313 476.141C414.969 474.974 418.958 474.781 441.74 474.568C482.344 474.198 491.651 473.385 504.219 469.135C507.922 467.88 508.589 467.229 508.214 465.245C507.818 463.125 507.292 463.094 499.911 464.672C483.37 468.214 472.021 468.719 454.521 466.677C433.615 464.24 423.313 464.219 410.563 466.604C409.276 466.839 408.229 466.99 408.229 466.927C408.229 466.365 429.958 453.078 433.823 451.276C437.026 449.787 438.854 447.24 437.505 446.156C436.964 445.719 431.714 445.453 429.646 445.76ZM687.188 483.932C686.234 484 682.974 484.224 679.932 484.427C662.245 485.599 634.667 489.698 578.885 499.443C507.286 511.953 469.885 516.016 445.021 513.99C422.802 512.177 409.104 510.031 391.802 505.651C381.563 503.057 379.75 502.75 379.443 503.552C377.719 508.047 400.38 519.078 420.682 523.625C455.75 531.479 494.141 528.349 587.865 510C660.224 495.828 685.255 493.656 736.932 497.047C760.385 498.589 802.979 504.807 827.958 510.333C840.599 513.13 843.505 513.599 845.047 513.094C849.156 511.734 842.646 505.891 832.599 501.906C823.599 498.344 803.667 494.438 777.698 491.156C772.568 490.505 762.385 489.198 755.068 488.25C742.146 486.578 729.016 485.162 719.484 484.406C714.88 484.042 690.536 483.682 687.188 483.932Z" fill="#e0dfdb"/>
</g>
</svg>
