<svg width="175" height="87" viewBox="0 0 175 87" fill="none" xmlns="http://www.w3.org/2000/svg">
<mask id="mask0_0_1" style="mask-type:luminance" maskUnits="userSpaceOnUse" x="139" y="17" width="36" height="70">
<path d="M140 18.679H173.58V86.0864H140V18.679Z" fill="white" stroke="white" stroke-width="1.5"/>
</mask>
<g mask="url(#mask0_0_1)">
<mask id="mask1_0_1" style="mask-type:luminance" maskUnits="userSpaceOnUse" x="115" y="8" width="78" height="80">
<path d="M116.721 39.7371L151.249 9.89816L191.237 56.1713L156.708 86.0102L116.721 39.7371Z" fill="white" stroke="white" stroke-width="1.5"/>
</mask>
<g mask="url(#mask1_0_1)">
<mask id="mask2_0_1" style="mask-type:luminance" maskUnits="userSpaceOnUse" x="108" y="9" width="91" height="93">
<path d="M109.228 46.2118L151.039 10.0804L197.522 63.87L155.712 100.001L109.228 46.2118Z" fill="white" stroke="white" stroke-width="1.5"/>
</mask>
<g mask="url(#mask2_0_1)">
<path fill-rule="evenodd" clip-rule="evenodd" d="M152.631 31.0671C152.69 30.9909 152.716 30.8887 152.691 30.7874C152.134 28.4562 150.211 24.7737 147.845 22.1011C146.232 20.2772 144.405 18.9327 142.676 18.7388C142.254 18.6925 141.722 18.6752 141.265 18.8083C140.914 18.9105 140.606 19.0976 140.397 19.4024C140.191 19.7033 140.131 20.0477 140.163 20.4007C140.205 20.8521 140.404 21.3189 140.578 21.6892C142.783 26.3922 147.769 28.6896 151.939 31.2369C151.957 31.2485 151.975 31.2571 151.995 31.2649C153.634 36.5889 155.11 43.6009 156.204 51.2244C154.021 47.1619 151.131 42.3374 147.662 39.6271C146.006 38.3337 144.592 38.2537 143.654 38.8034C143.068 39.1449 142.65 39.7381 142.458 40.4846C142.189 41.5349 142.373 42.9026 143.184 44.2423C145.257 47.6692 149.429 49.2867 152.84 51.0122C154.002 51.5995 155.365 52.1995 156.204 53.246C156.277 53.3376 156.39 53.38 156.499 53.3685L156.506 53.4196C156.809 55.7267 157.072 58.0396 157.295 60.3563C157.404 61.4896 157.502 62.6239 157.591 63.7591L157.594 63.7861C157.576 63.8546 157.583 63.9259 157.609 63.9896L157.615 64.0619L157.618 64.1053C157.5 64.2191 157.482 64.4053 157.581 64.5413C157.602 64.5712 157.628 64.5953 157.656 64.6156C158.628 77.7907 158.216 90.9823 155.433 99.358C155.375 99.5326 155.47 99.7217 155.644 99.7795C155.819 99.8374 156.008 99.7429 156.066 99.5683C158.876 91.1057 159.289 77.757 158.302 64.441C159.298 63.8189 160.63 63.5208 161.689 63.1196C163.6 62.3943 166.805 61.1395 169.367 59.5519C171.129 58.4601 172.582 57.2014 173.16 55.8617C173.528 55.0081 173.482 54.0542 173.065 53.2286C172.403 51.9149 171.267 51.586 170.049 51.7327C168.928 51.8677 167.732 52.4252 166.837 52.9257C163.037 55.0534 160.192 58.8121 158.161 62.6518C157.604 55.9929 156.708 49.3985 155.598 43.4871C155.611 43.4784 155.621 43.4697 155.632 43.4601C156.672 42.5023 157.598 41.4356 158.666 40.4971C159.769 39.5268 163.672 36.6815 165.224 34.1796C165.969 32.9778 166.17 31.8397 165.489 30.9697C164.944 30.2734 163.938 30.1547 163.127 30.2608C161.499 30.4749 159.816 31.8223 158.4 33.6327C156.782 35.6997 155.506 38.3588 155.007 40.4981C154.28 37.0075 153.477 33.815 152.631 31.0671ZM158.41 63.6212C160.401 59.6696 163.255 55.6948 167.163 53.5073C167.99 53.0444 169.091 52.5197 170.129 52.3943C171.071 52.2805 171.958 52.5139 172.47 53.5286C172.797 54.1777 172.838 54.9271 172.548 55.5974C172.014 56.8368 170.645 57.9759 169.016 58.9848C166.492 60.5492 163.334 61.7818 161.453 62.4965C160.512 62.8534 159.37 63.1418 158.41 63.6212ZM155.854 51.9825C155.031 51.3391 154.034 50.8694 153.14 50.4171C149.835 48.7446 145.763 47.2188 143.754 43.898C143.052 42.7377 142.87 41.559 143.104 40.6495C143.248 40.0891 143.55 39.6358 143.99 39.3783C144.759 38.9288 145.895 39.0928 147.251 40.1528C150.781 42.9103 153.685 47.9065 155.854 51.9825ZM155.386 42.3779C155.423 42.3249 155.446 42.2602 155.447 42.1898C155.468 40.0409 156.94 36.5803 158.925 34.0436C160.219 32.3895 161.727 31.1183 163.214 30.9225C163.809 30.8443 164.564 30.8694 164.964 31.3806C165.486 32.0461 165.228 32.9074 164.657 33.8285C163.138 36.2774 159.306 39.0465 158.225 39.9965C157.248 40.8559 156.387 41.8223 155.451 42.7155C155.43 42.6026 155.408 42.4898 155.386 42.3779ZM151.907 30.4392C147.923 28.0482 143.264 25.8472 141.182 21.4057C141.059 21.1453 140.916 20.8308 140.853 20.5116C140.802 20.256 140.798 19.9965 140.947 19.7795C141.102 19.5538 141.358 19.4555 141.629 19.4072C141.957 19.3494 142.311 19.3696 142.601 19.4014C144.198 19.5799 145.857 20.8598 147.346 22.5428C149.471 24.9435 151.234 28.1823 151.907 30.4392Z" fill="#e0dfdb" stroke="#e0dfdb" stroke-width="1.5"/>
</g>
</g>
</g>
<mask id="mask3_0_1" style="mask-type:luminance" maskUnits="userSpaceOnUse" x="160" y="9" width="11" height="10">
<path d="M161.707 10.3351H169.593V18.2346H161.707V10.3351Z" fill="white" stroke="white" stroke-width="1.5"/>
</mask>
<g mask="url(#mask3_0_1)">
<mask id="mask4_0_1" style="mask-type:luminance" maskUnits="userSpaceOnUse" x="78" y="-3" width="173" height="177">
<path d="M79.8802 66.9204L158.642 -1.26709L249.86 104.476L171.095 172.663L79.8802 66.9204Z" fill="white" stroke="white" stroke-width="1.5"/>
</mask>
<g mask="url(#mask4_0_1)">
<mask id="mask5_0_1" style="mask-type:luminance" maskUnits="userSpaceOnUse" x="61" y="-2" width="205" height="208">
<path d="M62.7897 81.7164L158.163 -0.850525L264.196 122.069L168.822 204.635L62.7897 81.7164Z" fill="white" stroke="white" stroke-width="1.5"/>
</mask>
<g mask="url(#mask5_0_1)">
<path fill-rule="evenodd" clip-rule="evenodd" d="M168.019 11.5077C166.558 10.0773 164.213 10.1059 162.787 11.5694C161.359 13.0307 161.386 15.3803 162.847 16.8107C164.308 18.239 166.651 18.2125 168.079 16.749C169.507 15.2855 169.48 12.9381 168.019 11.5077ZM167.106 12.4422C168.054 13.3679 168.07 14.8888 167.146 15.8365C166.222 16.7843 164.704 16.8019 163.758 15.8762C162.812 14.9505 162.794 13.4275 163.718 12.4819C164.644 11.5342 166.162 11.5165 167.106 12.4422Z" fill="#e0dfdb" stroke="#e0dfdb" stroke-width="1.5"/>
</g>
</g>
</g>
<mask id="mask6_0_1" style="mask-type:luminance" maskUnits="userSpaceOnUse" x="148" y="6" width="10" height="10">
<path d="M148.753 6.94971H156.638V14.8491H148.753V6.94971Z" fill="white" stroke="white" stroke-width="1.5"/>
</mask>
<g mask="url(#mask6_0_1)">
<mask id="mask7_0_1" style="mask-type:luminance" maskUnits="userSpaceOnUse" x="78" y="-3" width="173" height="177">
<path d="M79.8805 66.9204L158.643 -1.26709L249.86 104.476L171.095 172.663L79.8805 66.9204Z" fill="white" stroke="white" stroke-width="1.5"/>
</mask>
<g mask="url(#mask7_0_1)">
<mask id="mask8_0_1" style="mask-type:luminance" maskUnits="userSpaceOnUse" x="61" y="-2" width="205" height="208">
<path d="M62.7898 81.7164L158.163 -0.850525L264.196 122.069L168.823 204.635L62.7898 81.7164Z" fill="white" stroke="white" stroke-width="1.5"/>
</mask>
<g mask="url(#mask8_0_1)">
<path fill-rule="evenodd" clip-rule="evenodd" d="M155.215 8.35148C153.754 6.92104 151.411 6.94969 149.983 8.4132C148.557 9.8745 148.584 12.224 150.045 13.6523C151.503 15.0827 153.849 15.0563 155.274 13.5928C156.702 12.1293 156.676 9.78193 155.215 8.35148ZM154.304 9.28601C155.25 10.2117 155.268 11.7325 154.344 12.6803C153.42 13.628 151.901 13.6457 150.955 12.72C150.009 11.7943 149.992 10.2712 150.916 9.32569C151.84 8.37793 153.358 8.3603 154.304 9.28601Z" fill="#e0dfdb" stroke="#e0dfdb" stroke-width="1.5"/>
</g>
</g>
</g>
<mask id="mask9_0_1" style="mask-type:luminance" maskUnits="userSpaceOnUse" x="158" y="0" width="8" height="8">
<path d="M158.753 1H164.753V7H158.753V1Z" fill="white" stroke="white" stroke-width="1.5"/>
</mask>
<g mask="url(#mask9_0_1)">
<mask id="mask10_0_1" style="mask-type:luminance" maskUnits="userSpaceOnUse" x="105" y="-7" width="132" height="135">
<path d="M106.347 46.5508L166.278 -5.24103L235.687 75.0759L175.754 126.868L106.347 46.5508Z" fill="white" stroke="white" stroke-width="1.5"/>
</mask>
<g mask="url(#mask10_0_1)">
<mask id="mask11_0_1" style="mask-type:luminance" maskUnits="userSpaceOnUse" x="92" y="-6" width="156" height="159">
<path d="M93.3424 57.7891L165.913 -4.92462L246.595 88.4387L174.024 151.152L93.3424 57.7891Z" fill="white" stroke="white" stroke-width="1.5"/>
</mask>
<g mask="url(#mask11_0_1)">
<path fill-rule="evenodd" clip-rule="evenodd" d="M163.67 2.06472C162.558 0.978228 160.775 0.999992 159.689 2.1116C158.604 3.22153 158.624 5.00613 159.736 6.09095C160.846 7.17745 162.63 7.15736 163.715 6.04575C164.802 4.93414 164.781 3.15122 163.67 2.06472ZM162.977 2.77455C163.697 3.47767 163.71 4.6328 163.007 5.35267C162.304 6.07254 161.149 6.08593 160.429 5.3828C159.709 4.67968 159.696 3.52287 160.399 2.80468C161.102 2.08481 162.257 2.07142 162.977 2.77455Z" fill="#e0dfdb" stroke="#e0dfdb" stroke-width="1.5"/>
</g>
</g>
</g>
<path d="M13.8316 80C11.7646 80 9.93569 79.6591 8.3448 78.979C6.75391 78.2988 5.40978 77.3857 4.31532 76.2379C3.22376 75.0867 2.39638 73.8053 1.83609 72.3936C1.2787 70.982 1 69.5464 1 68.0833H2.0335C2.0335 69.4042 2.29768 70.6993 2.82894 71.9688C3.36311 73.2399 4.14259 74.3929 5.16883 75.4293C6.19361 76.4624 7.43323 77.2847 8.88477 77.8963C10.3392 78.5044 11.9882 78.8076 13.8316 78.8076C16.2934 78.8076 18.4359 78.4136 20.259 77.6222C22.0851 76.8273 23.5018 75.64 24.5092 74.0588C25.5151 72.4741 26.0188 70.5023 26.0188 68.145C26.0188 66.437 25.7125 64.9963 25.1014 63.821C24.4888 62.6424 23.6527 61.6796 22.5931 60.9292C21.5364 60.1755 20.3287 59.5964 18.9701 59.1887C17.6114 58.7827 16.1904 58.4966 14.7084 58.3321C13.5544 58.1916 12.3757 57.9946 11.1724 57.7428C9.96762 57.4875 8.8151 57.1261 7.71192 56.6601C6.60875 56.1907 5.62751 55.5757 4.7682 54.8167C3.90889 54.0544 3.22376 53.1036 2.71282 51.9661C2.20478 50.8285 1.95221 49.4683 1.95221 47.8819C1.95221 46.6039 2.14527 45.319 2.53283 44.0308C2.92329 42.739 3.56632 41.5638 4.46047 40.5085C5.35462 39.4498 6.57101 38.6001 8.11255 37.9594C9.65263 37.3204 11.5672 37 13.8548 37C16.3007 37 18.3793 37.4694 20.0907 38.4048C21.8049 39.3367 23.1128 40.6027 24.0156 42.2011C24.9214 43.7961 25.3743 45.5863 25.3743 47.5735H24.393C24.393 45.6051 23.9489 43.9194 23.0634 42.5163C22.1765 41.115 20.9398 40.0425 19.3533 39.3025C17.7697 38.5624 15.9364 38.1924 13.8548 38.1924C11.7719 38.1924 10.0286 38.463 8.62349 39.001C7.2213 39.5355 6.10362 40.2618 5.26753 41.1801C4.43435 42.0949 3.83631 43.1314 3.47343 44.2912C3.11344 45.4475 2.93345 46.645 2.93345 47.8819C2.93345 49.8743 3.42843 51.5052 4.41983 52.7747C5.40978 54.0407 6.79165 55.0137 8.56543 55.6939C10.3378 56.3757 12.4033 56.8485 14.7606 57.1124C15.6896 57.2134 16.6999 57.3762 17.7914 57.5989C18.8859 57.8233 19.976 58.1711 21.0603 58.6405C22.1431 59.1065 23.1331 59.742 24.0272 60.5455C24.9243 61.3455 25.6443 62.3666 26.1871 63.6086C26.7286 64.8472 27 66.3599 27 68.145C27 70.5434 26.4963 72.6318 25.4904 74.4083C24.483 76.1865 23.0025 77.5639 21.0487 78.5404C19.0935 79.5135 16.6883 80 13.8316 80Z" fill="#e0dfdb" stroke="#e0dfdb" stroke-width="1.5"/>
<path d="M48.5895 70.7654H32.6674V70.8349C32.6674 72.1264 32.8873 73.2982 33.3272 74.3495C33.7689 75.4018 34.3582 76.3036 35.0941 77.054C35.832 77.8025 36.6586 78.3773 37.5748 78.7785C38.4902 79.1779 39.4277 79.3765 40.3873 79.3765C41.3258 79.3765 42.2373 79.2058 43.1227 78.8634C44.01 78.5191 44.8048 78.0166 45.5069 77.3549C46.211 76.6914 46.7579 75.8792 47.1466 74.9167H47.8681C47.4668 75.9921 46.8823 76.9132 46.1165 77.679C45.3497 78.4458 44.4711 79.0322 43.4815 79.4383C42.4938 79.8443 41.4618 80.0478 40.3873 80.0478C39.255 80.0478 38.1825 79.8164 37.1698 79.3534C36.159 78.8904 35.2639 78.25 34.4846 77.4321C33.7072 76.6142 33.0995 75.6593 32.6597 74.5656C32.2199 73.4728 32 72.2922 32 71.0239C32 69.7537 32.2199 68.5731 32.6597 67.4823C33.0995 66.3895 33.7072 65.4336 34.4846 64.6157C35.2639 63.7978 36.159 63.1574 37.1698 62.6944C38.1825 62.2315 39.255 62 40.3873 62C41.5187 62 42.5797 62.2267 43.5702 62.679C44.5598 63.1294 45.4317 63.7515 46.186 64.5463C46.9421 65.341 47.5305 66.2506 47.9529 67.2739C48.3773 68.2982 48.5895 69.3756 48.5895 70.5069V70.7654ZM40.3873 62.6674C39.4045 62.6674 38.4699 62.8565 37.5826 63.2346C36.6952 63.6127 35.8966 64.1393 35.1867 64.8125C34.4788 65.4867 33.9078 66.2814 33.4738 67.1968C33.0388 68.113 32.7764 69.1017 32.6867 70.1636H47.9375C47.8912 69.1711 47.6645 68.223 47.2585 67.3202C46.8515 66.4155 46.3056 65.614 45.6188 64.9167C44.934 64.2174 44.146 63.6686 43.2539 63.2693C42.3607 62.8681 41.4059 62.6674 40.3873 62.6674Z" fill="#e0dfdb" stroke="#e0dfdb" stroke-width="1.5"/>
<path d="M54.652 80.2261H54V63H54.652V68.3202C54.9606 67.1889 55.4313 66.2282 56.064 65.4383C56.6987 64.6493 57.4452 64.0455 58.3017 63.6289C59.1601 63.2103 60.088 63 61.0833 63H62.4221V63.6867H61.0833C60.2133 63.6867 59.3935 63.8758 58.6219 64.2539C57.8503 64.6319 57.1674 65.1788 56.5733 65.8935C55.9792 66.6092 55.5095 67.4734 55.1651 68.4861C54.8227 69.4969 54.652 70.6427 54.652 71.9236V80.2261Z" fill="#e0dfdb" stroke="#e0dfdb" stroke-width="1.5"/>
<path d="M83.6011 70.7654H67.679V70.8349C67.679 72.1264 67.8989 73.2982 68.3388 74.3495C68.7805 75.4018 69.3698 76.3036 70.1057 77.054C70.8436 77.8025 71.6702 78.3773 72.5864 78.7785C73.5018 79.1779 74.4393 79.3765 75.3989 79.3765C76.3374 79.3765 77.2489 79.2058 78.1343 78.8634C79.0216 78.5191 79.8164 78.0166 80.5185 77.3549C81.2226 76.6914 81.7695 75.8792 82.1582 74.9167H82.8797C82.4784 75.9921 81.8939 76.9132 81.1281 77.679C80.3613 78.4458 79.4827 79.0322 78.4931 79.4383C77.5054 79.8443 76.4734 80.0478 75.3989 80.0478C74.2666 80.0478 73.1941 79.8164 72.1813 79.3534C71.1705 78.8904 70.2755 78.25 69.4962 77.4321C68.7188 76.6142 68.1111 75.6593 67.6713 74.5656C67.2315 73.4728 67.0116 72.2922 67.0116 71.0239C67.0116 69.7537 67.2315 68.5731 67.6713 67.4823C68.1111 66.3895 68.7188 65.4336 69.4962 64.6157C70.2755 63.7978 71.1705 63.1574 72.1813 62.6944C73.1941 62.2315 74.2666 62 75.3989 62C76.5303 62 77.5913 62.2267 78.5818 62.679C79.5714 63.1294 80.4433 63.7515 81.1976 64.5463C81.9537 65.341 82.5421 66.2506 82.9645 67.2739C83.3889 68.2982 83.6011 69.3756 83.6011 70.5069V70.7654ZM75.3989 62.6674C74.4161 62.6674 73.4815 62.8565 72.5942 63.2346C71.7068 63.6127 70.9082 64.1393 70.1983 64.8125C69.4904 65.4867 68.9194 66.2814 68.4854 67.1968C68.0504 68.113 67.788 69.1017 67.6983 70.1636H82.9491C82.9028 69.1711 82.6761 68.223 82.2701 67.3202C81.8631 66.4155 81.3172 65.614 80.6304 64.9167C79.9456 64.2174 79.1576 63.6686 78.2655 63.2693C77.3723 62.8681 76.4175 62.6674 75.3989 62.6674Z" fill="#e0dfdb" stroke="#e0dfdb" stroke-width="1.5"/>
<path d="M89.2531 79.635H88.6011V62.409H89.2531V67.027C89.5714 66.0548 90.0864 65.1925 90.7963 64.4383C91.5062 63.6821 92.3549 63.087 93.3426 62.652C94.3322 62.218 95.4047 62 96.5602 62C98.0465 62 99.3187 62.2855 100.376 62.8565C101.435 63.4275 102.245 64.3177 102.806 65.5262C103.367 66.7328 103.647 68.2905 103.647 70.1983V79.635H102.995V70.1983C102.995 67.6366 102.432 65.7413 101.306 64.5116C100.179 63.2828 98.5856 62.6674 96.5255 62.6674C95.5764 62.6674 94.6669 62.8478 93.7978 63.2076C92.9278 63.5683 92.1505 64.0795 91.4637 64.7431C90.7789 65.4066 90.2388 66.1879 89.8434 67.0849C89.4498 67.9828 89.2531 68.9695 89.2531 70.044V79.635Z" fill="#e0dfdb" stroke="#e0dfdb" stroke-width="1.5"/>
<path d="M109.523 57.8017C109.294 57.8017 109.091 57.713 108.914 57.5355C108.736 57.358 108.647 57.1439 108.647 56.8912C108.647 56.652 108.736 56.4437 108.914 56.2662C109.091 56.0887 109.294 56 109.523 56C109.762 56 109.973 56.0887 110.156 56.2662C110.341 56.4437 110.434 56.652 110.434 56.8912C110.434 57.1439 110.341 57.358 110.156 57.5355C109.973 57.713 109.762 57.8017 109.523 57.8017ZM109.866 79.777H109.214V62.5509H109.866V79.777Z" fill="#e0dfdb" stroke="#e0dfdb" stroke-width="1.5"/>
<path d="M127.204 80.5077H124.681C124.007 80.5077 123.371 80.4142 122.775 80.2261C122.181 80.0361 121.661 79.7159 121.217 79.2654C120.771 78.8131 120.423 78.1987 120.171 77.4213C119.919 76.642 119.793 75.664 119.793 74.4853V63.9684H115.434V63.2816H119.793V58H120.445V63.2816H127.204V63.9684H120.445V74.5046C120.445 75.6929 120.571 76.6449 120.823 77.3596C121.075 78.0752 121.41 78.6096 121.826 78.9645C122.243 79.3194 122.703 79.5548 123.208 79.6705C123.711 79.7843 124.209 79.8403 124.701 79.8403H127.204V80.5077Z" fill="#e0dfdb" stroke="#e0dfdb" stroke-width="1.5"/>
<path d="M134.897 86.1096H132.204V85.4421H135.052C135.692 85.4421 136.229 85.3418 136.664 85.1412C137.098 84.9406 137.475 84.6397 137.795 84.2384C138.116 83.8391 138.417 83.3366 138.698 82.7299C138.977 82.1252 139.278 81.4163 139.6 80.6042L139.72 80.2955L132.444 63H133.15L139.701 78.6481L140.044 79.6242L140.437 78.6636L146.977 63H147.679L140.696 79.5895C140.25 80.6543 139.863 81.5918 139.531 82.402C139.199 83.2141 138.844 83.8951 138.466 84.4429C138.088 84.9927 137.621 85.4084 137.066 85.689C136.512 85.9688 135.79 86.1096 134.897 86.1096Z" fill="#e0dfdb" stroke="#e0dfdb" stroke-width="1.5"/>
</svg>
